PathFileType	4	(X/Y/Z)	 s01c0402.trc
DataRate	CameraRate	NumFrames	NumMarkers	Units	OrigDataRate	OrigDataStartFrame	OrigNumFrames
200	200	4	48	mm	200	501	2000
Frame#	Time	racr			lacr			c7			jug			rlel			rdr			llel			ldr			s2			lic			ric			lasi			rasi			rpsi			lpsi			rgt			lgt			rth1			rth2			rth3			rth4			rlfc			rsh1			rsh2			rsh3			rsh4			rlmal			rmmal			rcal			rtoe			rmt5			lth1			lth2			lth4			lth3			llfc			lsh1			lsh2			lsh3			lsh4			llmal			lmmal			lcal			ltoe			lmt5			SBIKE			LBIKE			RBIKE			
		X1	Y1	Z1	X2	Y2	Z2	X3	Y3	Z3	X4	Y4	Z4	X5	Y5	Z5	X6	Y6	Z6	X7	Y7	Z7	X8	Y8	Z8	X9	Y9	Z9	X10	Y10	Z10	X11	Y11	Z11	X12	Y12	Z12	X13	Y13	Z13	X14	Y14	Z14	X15	Y15	Z15	X16	Y16	Z16	X17	Y17	Z17	X18	Y18	Z18	X19	Y19	Z19	X20	Y20	Z20	X21	Y21	Z21	X22	Y22	Z22	X23	Y23	Z23	X24	Y24	Z24	X25	Y25	Z25	X26	Y26	Z26	X27	Y27	Z27	X28	Y28	Z28	X29	Y29	Z29	X30	Y30	Z30	X31	Y31	Z31	X32	Y32	Z32	X33	Y33	Z33	X34	Y34	Z34	X35	Y35	Z35	X36	Y36	Z36	X37	Y37	Z37	X38	Y38	Z38	X39	Y39	Z39	X40	Y40	Z40	X41	Y41	Z41	X42	Y42	Z42	X43	Y43	Z43	X44	Y44	Z44	X45	Y45	Z45	X46	Y46	Z46	X47	Y47	Z47	X48	Y48	Z48	
501	2.5050	657.948377	1290.609253	2.018518	715.952037	1301.865509	-379.751015	674.955522	1408.937789	-183.267485	692.395769	1242.340398	-185.624933	508.784761	1032.261992	55.760899	686.306306	896.833399	-47.939162	574.183882	1083.930372	-533.483383	706.527481	895.836486	-452.357356	165.032417	1194.270800	-219.038818	330.650849	1199.562144	-401.328806	323.630902	1177.227027	-68.884560	322.071378	1141.731965	-381.423098	353.218809	1134.006064	-105.053116	200.376564	1228.729948	-171.047112	192.573895	1235.047287	-276.336486	275.427508	1065.368413	-47.309463	260.374051	1065.891912	-426.877801	337.299450	947.977368	-39.490360	381.094564	877.921120	-48.993736	423.264195	799.762769	-65.518696	428.720185	905.347114	-63.254391	453.953302	691.489102	-93.258511	400.471869	584.831903	-58.994680	371.787860	505.069416	-64.706513	333.219396	425.662700	-75.625202	413.198704	490.549382	-105.865046	266.820519	317.239392	-94.506754	322.355422	334.325202	-169.744279	215.374926	299.048751	-147.930960	473.848758	215.219529	-129.985257	364.632588	210.198721	-62.447910	332.224591	968.543466	-443.276695	404.374792	922.883962	-450.163860	437.009185	962.355456	-439.669608	471.447301	864.511957	-444.699374	516.332621	759.534273	-436.063382	409.281263	730.902536	-460.578953	335.993225	686.816657	-450.271638	261.393147	646.226769	-433.553696	367.512301	640.848252	-423.038130	156.569059	588.616429	-413.584400	182.014540	568.981812	-333.605116	105.587163	609.561851	-367.867074	216.849693	354.214308	-372.225332	150.282876	437.527039	-438.736928	-223.262052	893.407829	-250.599807	-12.379475	85.032483	-455.868227	-21.505141	80.829972	-55.749064	
502	2.5100	658.539822	1292.284681	0.257963	714.707697	1303.734903	-382.219894	674.208113	1410.584919	-185.310792	692.877785	1244.326148	-187.724246	509.818097	1033.148394	55.303520	686.789434	896.601371	-48.061212	574.195622	1083.793438	-533.953245	706.809573	895.998405	-452.783982	165.258493	1191.964620	-218.782716	330.174706	1198.907132	-401.539336	324.694519	1175.696893	-69.068681	322.470185	1141.235340	-381.477760	354.221967	1132.633671	-105.297195	200.789236	1226.393541	-170.865684	192.514209	1233.098523	-275.881666	275.478762	1063.037113	-48.184287	261.662602	1064.601338	-427.267011	337.023966	945.510799	-39.652196	379.994413	874.905438	-49.091505	421.195685	796.323240	-65.776398	427.993902	901.854282	-63.131184	451.319024	687.608116	-93.214254	397.906287	581.034776	-58.843648	369.258084	501.072051	-64.606872	330.671144	421.748323	-75.545286	410.730892	486.602138	-105.810546	264.250426	313.632382	-94.505792	320.136225	330.916042	-169.428864	212.656496	296.101593	-147.869928	470.282974	209.609353	-130.293930	361.243704	205.995585	-62.504006	334.677732	968.461856	-443.528831	407.328230	924.092835	-450.702971	439.609304	963.932084	-440.115677	475.444646	866.552751	-445.206204	521.125783	762.169425	-436.618930	413.960373	734.345653	-460.881311	340.420807	690.592423	-450.297109	265.329387	650.556267	-433.422825	371.624294	644.596919	-423.237726	160.620208	593.082541	-413.457635	186.009638	573.553814	-333.246582	109.552140	614.119686	-367.742621	220.918163	358.774570	-372.226469	154.297666	442.063398	-438.675639	-223.269122	893.400597	-250.593654	-12.382544	85.036795	-455.867311	-21.499629	80.816489	-55.739850	
503	2.5150	659.199452	1294.158641	-1.505194	713.488824	1305.634651	-384.710861	673.522952	1412.225134	-187.505493	693.290934	1246.310435	-189.846610	510.968111	1034.272467	54.779025	687.335537	896.460038	-48.143021	574.150087	1083.672630	-534.369131	707.035405	896.210781	-453.211293	165.568435	1189.840147	-218.567252	329.708147	1198.346836	-401.748630	325.635948	1174.429646	-69.299111	322.852853	1140.854651	-381.561893	355.254698	1131.301650	-105.461354	201.284675	1224.251610	-170.709525	192.493202	1231.336957	-275.427410	276.170456	1060.865133	-48.576908	262.838204	1063.671314	-427.682460	336.580767	943.195868	-39.886535	378.741438	872.150763	-49.473195	419.221141	793.119577	-65.782388	426.814591	898.403280	-62.053514	448.495757	684.084806	-93.254497	395.200924	577.368807	-58.757992	366.566810	497.537326	-64.562136	328.080309	418.179370	-75.367393	408.107048	483.122563	-105.707325	261.631169	310.278768	-94.609762	317.720282	327.616125	-169.129327	209.924667	293.501749	-147.696780	466.550248	203.885770	-130.524415	357.465719	201.454833	-62.670464	337.121208	968.569138	-444.056358	410.197852	925.437792	-451.208973	442.042167	965.382982	-440.595013	479.322487	868.625782	-445.599297	525.841594	764.906297	-437.017717	418.474356	737.792204	-460.875629	344.678159	694.411718	-450.309340	269.544149	654.678015	-433.269013	375.790287	648.200945	-423.293836	164.615188	597.466929	-413.313794	190.065710	577.915392	-333.023954	113.425189	618.516800	-367.559768	225.375844	363.437327	-372.087244	158.558345	446.668604	-438.471282	-223.274353	893.390775	-250.584997	-12.389602	85.014014	-455.867410	-21.475221	80.810221	-55.746618	
504	2.5200	659.934855	1295.984489	-3.479623	712.297503	1307.461688	-387.316911	672.942404	1413.960245	-189.795717	693.729362	1248.306969	-192.014193	512.295243	1035.598358	54.276571	687.892135	896.336446	-48.202854	573.680876	1083.852816	-535.396000	707.215521	896.448210	-453.644667	166.100578	1187.868337	-218.264467	329.240437	1197.908451	-402.005375	326.617054	1173.235696	-69.554087	323.238137	1140.619878	-381.607496	356.313230	1130.195363	-105.592044	201.822608	1222.367517	-170.579712	192.525838	1229.795315	-275.035881	276.925195	1058.967141	-49.039379	264.081694	1062.904217	-428.118614	336.112132	941.147928	-40.149211	377.539625	869.755747	-49.435761	417.116736	790.168624	-65.793364	425.857743	895.464525	-62.638127	445.596065	680.665975	-93.345865	392.571497	573.832529	-58.759821	363.801346	494.009748	-64.408127	325.332393	414.642370	-75.338572	404.808730	479.698780	-106.301080	258.858346	306.999391	-94.838180	315.118328	324.431441	-168.843389	207.056002	290.933064	-147.616900	462.684424	198.390874	-130.894077	353.664895	197.407488	-62.774966	339.297265	968.750294	-444.771906	412.977589	926.927954	-451.682134	444.262936	967.136284	-441.193979	482.889209	870.848515	-446.113414	530.444258	767.870828	-437.362661	422.850839	741.335533	-460.826451	348.909941	698.278381	-450.102381	273.638890	658.801829	-433.001624	379.788582	651.874229	-423.362748	168.552294	601.762308	-413.150166	193.938498	582.371912	-332.367619	117.142948	622.707587	-367.429426	229.934261	368.009203	-371.906993	162.829064	451.033594	-438.277536	-223.287472	893.381930	-250.575188	-12.370536	85.016466	-455.861891	-21.480118	80.805742	-55.752555	
